HIERARCHY
ROOT Hips
{
	OFFSET	0.00	0.00	0.00
	CHANNELS 6 Xposition Yposition Zposition Zrotation Xrotation Yrotation
	JOINT LeftUpLeg
	{
		OFFSET	 0.126116	-0.014019	-0.065224
		CHANNELS 3 Zrotation Xrotation Yrotation
		JOINT LeftLeg
		{
			OFFSET	 0.000000	 0.000000	 0.569914
			CHANNELS 3 Zrotation Xrotation Yrotation
			JOINT LeftFoot
			{
				OFFSET	 0.000000	 0.000000	 0.544423
				CHANNELS 3 Zrotation Xrotation Yrotation
				JOINT LeftToeBase
				{
					OFFSET	 0.000000	 0.000000	 0.207117
					CHANNELS 3 Zrotation Xrotation Yrotation
					End Site
					{
						OFFSET	 0.000000	 0.000000	 0.207117
					}
				}
			}
		}
	}
	JOINT RightUpLeg
	{
		OFFSET	-0.124023	-0.008373	-0.065224
		CHANNELS 3 Zrotation Xrotation Yrotation
		JOINT RightLeg
		{
			OFFSET	 0.000000	 0.000000	 0.570047
			CHANNELS 3 Zrotation Xrotation Yrotation
			JOINT RightFoot
			{
				OFFSET	 0.000000	 0.000000	 0.544354
				CHANNELS 3 Zrotation Xrotation Yrotation
				JOINT RightToeBase
				{
					OFFSET	 0.000000	 0.000000	 0.207540
					CHANNELS 3 Zrotation Xrotation Yrotation
					End Site
					{
						OFFSET	 0.000000	 0.000000	 0.207540
					}
				}
			}
		}
	}
	JOINT Spine
	{
		OFFSET	 0.000184	-0.007763	 0.117403
		CHANNELS 3 Zrotation Xrotation Yrotation
		JOINT Spine1
		{
			OFFSET	 0.000000	 0.000000	 0.137269
			CHANNELS 3 Zrotation Xrotation Yrotation
			JOINT Spine2
			{
				OFFSET	 0.000000	 0.000000	 0.156879
				CHANNELS 3 Zrotation Xrotation Yrotation
				JOINT LeftShoulder
				{
					OFFSET	 0.080501	-0.002496	 0.160144
					CHANNELS 3 Zrotation Xrotation Yrotation
					JOINT LeftArm
					{
						OFFSET	 0.000000	 0.000000	 0.164363
						CHANNELS 3 Zrotation Xrotation Yrotation
						JOINT LeftForeArm
						{
							OFFSET	 0.000000	 0.000000	 0.364576
							CHANNELS 3 Zrotation Xrotation Yrotation
							JOINT LeftHand
							{
								OFFSET	 0.000000	 0.000000	 0.360812
								CHANNELS 3 Zrotation Xrotation Yrotation
								JOINT LeftHandIndex1
								{
									OFFSET	 0.000000	 0.000000	 0.086006
									CHANNELS 3 Zrotation Xrotation Yrotation
									JOINT LeftHandIndex2
									{
										OFFSET	 0.000000	 0.000000	 0.047236
										CHANNELS 3 Zrotation Xrotation Yrotation
										JOINT LeftHandIndex3
										{
											OFFSET	-0.004284	-0.000551	 0.038166
											CHANNELS 3 Zrotation Xrotation Yrotation
											End Site
											{
												OFFSET	-0.004284	-0.000551	 0.038166
											}
										}
									}
								}
							}
						}
					}
				}
				JOINT Neck
				{
					OFFSET	 0.000000	 0.000000	 0.176489
					CHANNELS 3 Zrotation Xrotation Yrotation
					JOINT Head
					{
						OFFSET	 0.000000	-0.001747	 0.077940
						CHANNELS 3 Zrotation Xrotation Yrotation
						End Site
						{
							OFFSET	 0.000000	-0.001747	 0.077940
						}
					}
				}
				JOINT RightShoulder
				{
					OFFSET	-0.080363	 0.000306	 0.159706
					CHANNELS 3 Zrotation Xrotation Yrotation
					JOINT RightArm
					{
						OFFSET	 0.000000	 0.000000	 0.164196
						CHANNELS 3 Zrotation Xrotation Yrotation
						JOINT RightForeArm
						{
							OFFSET	 0.000000	 0.000000	 0.365611
							CHANNELS 3 Zrotation Xrotation Yrotation
							JOINT RightHand
							{
								OFFSET	 0.000000	 0.000000	 0.360648
								CHANNELS 3 Zrotation Xrotation Yrotation
								JOINT RightHandIndex1
								{
									OFFSET	 0.000000	 0.000000	 0.069977
									CHANNELS 3 Zrotation Xrotation Yrotation
									JOINT RightHandIndex2
									{
										OFFSET	 0.000000	 0.000000	 0.052305
										CHANNELS 3 Zrotation Xrotation Yrotation
										JOINT RightHandIndex3
										{
											OFFSET	 0.009002	-0.000782	 0.042196
											CHANNELS 3 Zrotation Xrotation Yrotation
											End Site
											{
												OFFSET	 0.009002	-0.000782	 0.042196
											}
										}
									}
								}
							}
						}
					}
				}
			}
		}
	}
}
MOTION
Frames:    13
Frame Time: 0.03333334
-0.000501	 0.014481	 1.266934	 0.004070	 0.007495	-0.095394	 2.523705	-3.338010	 178.002900	 1.428929	-15.072480	-0.887702	-7.821373	 72.630630	 1.740304	-2.385833	 28.452760	 0.000004	-2.649364	-3.591855	-177.828500	-1.409063	-15.528340	 0.899056	 7.675344	 72.941210	-1.739167	 2.384658	 28.388730	 0.000004	-11.171380	 2.722844	-0.014859	 1.143943	 3.668943	 0.466861	-3.436298	-4.628053	-0.760804	-91.776190	 78.527450	-180.000000	 49.843590	 35.742380	-53.945330	-22.891700	 1.847588	-6.274318	-37.645310	-9.959205	-5.774240	-2.635965	 4.993658	 6.788941	-5.165319	 0.784187	 3.516649	-5.225038	 0.466231	 0.424329	-0.000002	-3.783157	-0.089647	-3.329934	 4.944224	 0.143790	 89.782090	 78.203870	-180.000000	 1.928661	 12.833840	 105.421700	-19.589560	 1.515554	 6.380126	 10.441050	-11.907270	-4.610518	 6.112037	 4.509576	-0.364401	 4.968462	 1.518543	-9.347576	 5.168945	 0.703820	 2.021906
-0.000511	 0.012982	 1.267038	 0.004074	 0.007498	-0.095379	 2.526042	-3.270933	 177.998300	 1.430549	-14.971220	-0.881456	-7.797794	 72.597280	 1.715339	-2.385833	 28.452760	 0.000004	-2.655195	-3.435894	-177.818800	-1.411685	-15.366340	 0.889208	 7.663615	 72.935940	-1.725962	 2.384658	 28.388730	 0.000004	-11.106010	 2.722841	-0.014876	 1.143940	 3.668961	 0.466888	-3.436297	-4.628064	-0.760818	-91.776200	 78.527450	-180.000000	 49.857390	 35.742370	-53.963070	-23.014530	 1.874210	-6.319566	-37.577920	-9.355932	-5.677763	-2.635965	 4.993658	 6.788941	-5.165319	 0.784187	 3.516649	-5.225038	 0.466231	 0.424329	-0.000002	-3.783157	-0.089647	-3.329936	 4.944223	 0.143790	 89.782140	 78.203920	 180.000000	 1.940253	 12.921440	 105.450000	-19.532290	 1.542005	 6.423452	 10.487390	-11.356400	-4.708068	 6.112037	 4.509576	-0.364401	 4.968462	 1.518543	-9.347576	 5.168945	 0.703820	 2.021906
-0.000516	 0.011710	 1.267113	 0.004083	 0.007502	-0.095387	 2.527837	-3.218741	 177.994700	 1.431760	-14.895040	-0.876763	-7.781047	 72.573890	 1.697555	-2.385833	 28.452760	 0.000004	-2.660036	-3.307317	-177.810800	-1.413765	-15.236500	 0.881326	 7.656094	 72.935260	-1.717331	 2.384658	 28.388730	 0.000004	-11.037430	 2.722834	-0.014866	 1.143933	 3.668934	 0.466874	-3.436289	-4.628047	-0.760809	-91.776170	 78.527490	 180.000000	 49.877660	 35.746090	-53.991860	-23.115840	 1.895771	-6.356052	-37.515770	-8.828269	-5.593480	-2.635965	 4.993658	 6.788941	-5.165319	 0.784187	 3.516649	-5.225038	 0.466231	 0.424329	-0.000002	-3.783157	-0.089647	-3.329934	 4.944224	 0.143790	 89.782100	 78.203900	 180.000000	 1.927071	 13.000250	 105.464500	-19.489230	 1.563837	 6.463549	 10.526410	-10.877970	-4.794922	 6.112037	 4.509576	-0.364401	 4.968462	 1.518543	-9.347576	 5.168945	 0.703820	 2.021906
-0.000518	 0.010442	 1.267176	 0.004083	 0.007502	-0.095387	 2.529487	-3.171164	 177.991500	 1.432813	-14.828280	-0.872650	-7.767328	 72.555210	 1.682957	-2.385833	 28.452760	 0.000004	-2.664696	-3.182897	-177.803100	-1.415702	-15.114450	 0.873925	 7.650965	 72.938130	-1.711185	 2.384658	 28.388730	 0.000004	-10.956280	 2.722834	-0.014866	 1.143935	 3.668936	 0.466867	-3.436289	-4.628048	-0.760805	-91.776140	 78.527470	 180.000000	 49.904710	 35.755550	-54.032400	-23.213850	 1.917390	-6.392327	-37.448860	-8.290777	-5.507716	-2.635965	 4.993658	 6.788941	-5.165319	 0.784187	 3.516649	-5.225038	 0.466231	 0.424329	-0.000002	-3.783157	-0.089647	-3.329936	 4.944223	 0.143790	 89.782100	 78.203870	 180.000000	 1.879752	 13.073130	 105.468600	-19.450330	 1.585241	 6.498368	 10.563990	-10.384540	-4.883857	 6.112037	 4.509576	-0.364401	 4.968462	 1.518543	-9.347576	 5.168945	 0.703820	 2.021906
-0.000514	 0.009193	 1.267216	 0.004070	 0.007495	-0.095394	 2.530820	-3.132859	 177.989000	 1.433569	-14.780160	-0.869688	-7.759538	 72.545740	 1.674586	-2.385833	 28.452760	 0.000004	-2.669004	-3.068192	-177.796100	-1.417344	-15.010110	 0.867607	 7.650965	 72.948820	-1.710458	 2.384658	 28.388730	 0.000004	-10.863010	 2.722844	-0.014859	 1.143941	 3.668927	 0.466862	-3.436291	-4.628040	-0.760802	-91.776280	 78.527490	-179.999900	 49.943880	 35.765440	-54.088850	-23.307150	 1.938091	-6.426704	-37.378030	-7.751891	-5.422019	-2.635965	 4.993658	 6.788941	-5.165319	 0.784187	 3.516649	-5.225038	 0.466231	 0.424329	-0.000002	-3.783157	-0.089647	-3.329934	 4.944224	 0.143790	 89.782040	 78.203870	-180.000000	 1.827812	 13.162570	 105.463500	-19.420250	 1.605656	 6.533080	 10.605920	-9.872575	-4.973238	 6.112037	 4.509576	-0.364401	 4.968462	 1.518543	-9.347576	 5.168945	 0.703820	 2.021906
-0.000503	 0.007969	 1.267210	 0.004070	 0.007495	-0.095394	 2.531511	-3.112241	 177.987900	 1.433765	-14.767830	-0.868931	-7.763117	 72.553980	 1.678148	-2.385833	 28.452760	 0.000004	-2.672598	-2.972217	-177.790500	-1.418425	-14.941050	 0.863426	 7.661619	 72.975730	-1.720899	 2.384658	 28.388730	 0.000004	-10.758430	 2.722843	-0.014859	 1.143940	 3.668939	 0.466890	-3.436297	-4.628047	-0.760816	-91.776220	 78.527430	-180.000000	 49.989450	 35.784900	-54.159680	-23.393980	 1.957192	-6.458353	-37.304310	-7.218917	-5.337667	-2.635965	 4.993658	 6.788941	-5.165319	 0.784187	 3.516649	-5.225038	 0.466231	 0.424329	-0.000002	-3.783157	-0.089647	-3.329934	 4.944224	 0.143790	 89.782050	 78.203900	-180.000000	 1.845289	 13.265520	 105.460900	-19.394370	 1.624709	 6.565624	 10.642530	-9.363965	-5.062225	 6.112037	 4.509576	-0.364401	 4.968462	 1.518543	-9.347576	 5.168945	 0.703820	 2.021906
-0.000484	 0.006520	 1.267175	 0.004083	 0.007502	-0.095387	 2.531909	-3.099074	 177.987400	 1.433629	-14.776420	-0.869458	-7.774844	 72.575470	 1.690227	-2.385833	 28.452760	 0.000004	-2.676455	-2.869357	-177.784700	-1.419362	-14.880960	 0.859793	 7.681267	 73.018330	-1.740630	 2.384658	 28.388730	 0.000004	-10.616450	 2.722832	-0.014866	 1.143933	 3.668947	 0.466887	-3.436296	-4.628049	-0.760813	-91.776170	 78.527490	 180.000000	 50.055930	 35.815050	-54.263790	-23.491100	 1.979118	-6.494206	-37.210420	-6.582856	-5.237583	-2.635965	 4.993658	 6.788941	-5.165319	 0.784187	 3.516649	-5.225038	 0.466231	 0.424329	-0.000002	-3.783157	-0.089647	-3.329936	 4.944223	 0.143790	 89.782100	 78.203870	 180.000000	 1.850439	 13.417860	 105.449900	-19.368560	 1.646195	 6.601887	 10.468290	-8.666097	-5.170896	 6.112037	 4.509576	-0.364401	 4.968462	 1.518543	-9.347576	 5.168945	 0.703820	 2.021906
-0.000469	 0.005400	 1.267151	 0.004083	 0.007502	-0.095387	 2.532266	-3.087742	 177.986900	 1.433563	-14.780660	-0.869719	-7.783146	 72.590820	 1.698760	-2.385833	 28.452760	 0.000004	-2.679497	-2.788043	-177.780000	-1.420136	-14.830870	 0.856764	 7.695353	 73.049420	-1.754725	 2.384658	 28.388730	 0.000004	-10.491920	 2.722834	-0.014866	 1.143936	 3.668940	 0.466876	-3.436289	-4.628049	-0.760813	-91.776150	 78.527430	 180.000000	 50.115890	 35.842660	-54.357140	-23.562280	 1.996512	-6.522059	-37.132820	-6.087586	-5.160275	-2.635965	 4.993658	 6.788941	-5.165319	 0.784187	 3.516649	-5.225038	 0.466231	 0.424329	-0.000002	-3.783157	-0.089647	-3.329936	 4.944223	 0.143790	 89.782150	 78.203850	 180.000000	 1.764150	 13.518690	 105.422400	-19.352640	 1.661910	 6.628329	 10.252250	-8.089330	-5.256406	 6.112037	 4.509576	-0.364401	 4.968462	 1.518543	-9.347576	 5.168945	 0.703820	 2.021906
-0.000452	 0.003913	 1.267165	 0.004079	 0.007500	-0.095381	 2.533399	-3.054637	 177.984900	 1.434057	-14.749010	-0.867772	-7.782100	 72.592430	 1.697433	-2.385833	 28.452760	 0.000004	-2.684314	-2.661030	-177.772300	-1.421762	-14.725390	 0.850393	 7.701343	 73.071170	-1.760151	 2.384658	 28.388730	 0.000004	-10.304800	 2.722836	-0.014871	 1.143938	 3.668947	 0.466892	-3.436296	-4.628049	-0.760820	-91.776180	 78.527470	 180.000000	 50.205800	 35.885250	-54.499700	-23.649700	 2.015516	-6.553031	-37.022020	-5.427119	-5.058162	-2.635965	 4.993658	 6.788941	-5.165319	 0.784187	 3.516649	-5.225038	 0.466231	 0.424329	-0.000002	-3.783157	-0.089647	-3.329936	 4.944223	 0.143790	 89.782070	 78.203830	-180.000000	 1.361990	 13.668190	 105.344200	-19.281120	 1.681748	 6.661029	 9.891711	-7.313916	-5.363037	 6.112037	 4.509576	-0.364401	 4.968462	 1.518543	-9.347576	 5.168945	 0.703820	 2.021906
-0.000446	 0.002810	 1.267244	 0.004083	 0.007502	-0.095387	 2.535186	-3.003379	 177.981400	 1.435286	-14.670430	-0.862938	-7.763514	 72.565750	 1.677751	-2.385833	 28.452760	 0.000004	-2.689008	-2.538743	-177.764500	-1.423831	-14.589860	 0.842214	 7.687112	 73.058660	-1.744624	 2.384658	 28.388730	 0.000004	-10.148230	 2.722834	-0.014866	 1.143932	 3.668933	 0.466887	-3.436296	-4.628041	-0.760815	-91.776190	 78.527490	-180.000000	 50.275620	 35.923340	-54.613280	-23.708570	 2.028803	-6.574518	-36.933770	-4.935858	-4.983121	-2.635965	 4.993658	 6.788941	-5.165319	 0.784187	 3.516649	-5.225038	 0.466231	 0.424329	-0.000002	-3.783157	-0.089647	-3.329934	 4.944224	 0.143790	 89.782100	 78.203870	 180.000000	 0.711043	 13.845970	 105.241800	-19.121940	 1.696106	 6.685545	 9.489589	-6.727591	-5.428110	 6.112037	 4.509576	-0.364401	 4.968462	 1.518543	-9.347576	 5.168945	 0.703820	 2.021906
-0.000450	 0.001269	 1.267481	 0.004083	 0.007502	-0.095387	 2.539502	-2.881955	 177.972500	 1.438570	-14.457860	-0.849883	-7.704720	 72.476560	 1.615806	-2.385833	 28.452760	 0.000004	-2.697703	-2.315158	-177.749500	-1.428290	-14.293020	 0.824338	 7.632510	 72.987460	-1.686597	 2.384658	 28.388730	 0.000004	-9.901204	 2.722832	-0.014866	 1.143934	 3.668948	 0.466899	-3.436296	-4.628049	-0.760823	-91.776170	 78.527490	 180.000000	 50.388680	 35.981490	-54.794900	-23.782980	 2.045610	-6.601455	-36.800300	-4.250557	-4.879954	-2.635965	 4.993658	 6.788941	-5.165319	 0.784187	 3.516649	-5.225038	 0.466231	 0.424329	-0.000002	-3.783157	-0.089647	-3.329934	 4.944224	 0.143790	 89.782090	 78.203900	-180.000000	-0.747832	 13.978410	 105.040300	-18.907180	 1.714520	 6.712090	 8.909973	-5.904617	-5.518607	 6.112037	 4.509576	-0.364401	 4.968462	 1.518543	-9.347576	 5.168945	 0.703820	 2.021906
-0.000459	 0.000110	 1.267736	 0.004083	 0.007502	-0.095387	 2.543922	-2.758628	 177.963400	 1.441999	-14.231930	-0.836035	-7.640019	 72.376050	 1.547692	-2.385833	 28.452760	 0.000004	-2.705675	-2.112284	-177.735600	-1.432609	-13.998790	 0.806666	 7.569073	 72.898400	-1.619526	 2.384658	 28.388730	 0.000004	-9.692859	 2.722834	-0.014866	 1.143933	 3.668933	 0.466887	-3.436296	-4.628040	-0.760815	-91.776180	 78.527450	 180.000000	 50.482860	 36.036160	-54.949670	-23.831090	 2.056964	-6.619485	-36.692450	-3.742320	-4.804815	-2.635965	 4.993658	 6.788941	-5.165319	 0.784187	 3.516649	-5.225038	 0.466231	 0.424329	-0.000002	-3.783157	-0.089647	-3.329934	 4.944224	 0.143790	 89.782140	 78.203870	 179.999900	-2.304961	 14.292490	 104.849900	-18.458430	 1.729288	 6.729901	 8.709319	-5.463180	-5.551768	 6.112037	 4.509576	-0.364401	 4.968462	 1.518543	-9.347576	 5.168945	 0.703820	 2.021906
-0.000471	-0.000977	 1.268011	 0.004083	 0.007502	-0.095387	 2.548876	-2.627389	 177.953600	 1.445643	-13.987430	-0.821078	-7.568517	 72.253640	 1.472745	-2.385833	 28.452760	 0.000004	-2.714096	-1.904386	-177.721100	-1.437089	-13.686250	 0.787942	 7.497212	 72.784760	-1.543945	 2.384658	 28.388730	 0.000004	-9.479465	 2.722834	-0.014866	 1.143933	 3.668930	 0.466880	-3.436296	-4.628039	-0.760811	-91.776110	 78.527450	 179.999900	 50.579620	 36.092350	-55.109160	-23.868880	 2.065358	-6.632942	-36.585520	-3.276635	-4.737157	-2.635965	 4.993658	 6.788941	-5.165319	 0.784187	 3.516649	-5.225038	 0.466231	 0.424329	-0.000002	-3.783157	-0.089647	-3.329934	 4.944224	 0.143790	 89.782140	 78.203830	 180.000000	-3.986359	 14.578180	 104.604100	-18.025860	 1.741564	 6.743733	 8.526043	-5.067562	-5.581517	 6.112037	 4.509576	-0.364401	 4.968462	 1.518543	-9.347576	 5.168945	 0.703820	 2.021906
